<?xml version="1.0" encoding="utf-8"?>
<!-- Generator: Adobe Illustrator 21.0.0, SVG Export Plug-In . SVG Version: 6.00 Build 0)  -->
<svg version="1.1" id="Layer_1" xmlns="http://www.w3.org/2000/svg" xmlns:xlink="http://www.w3.org/1999/xlink" x="0px" y="0px"
	 viewBox="0 0 32 32" style="enable-background:new 0 0 32 32;" xml:space="preserve">
<style type="text/css">
	.st0{fill:#1D1D1B;}
</style>
<g>
	<g>
		<path class="st0" d="M1.8092,15.787c-0.167-0.1862-0.2492-0.43-0.2492-0.7312c0-0.2985,0.0849-0.5422,0.2519-0.7285
			c0.167-0.1862,0.3861-0.2793,0.6518-0.2793c0.4162,0,0.6901,0.2218,0.764,0.6024H2.9923
			c-0.0548-0.2547-0.2437-0.4026-0.5285-0.4026c-0.2054,0-0.367,0.0712-0.4847,0.2163c-0.1177,0.1452-0.178,0.3423-0.178,0.5915
			s0.0575,0.4491,0.1753,0.5943c0.1178,0.1451,0.2766,0.2191,0.4792,0.2191c0.167,0,0.3067-0.0492,0.4135-0.1451
			c0.1068-0.0958,0.1588-0.2191,0.1588-0.3752v-0.1013H2.5651v-0.1862h0.6928v0.9749H3.0717l-0.0219-0.3259
			c-0.0356,0.1013-0.1123,0.1862-0.2246,0.2547c-0.115,0.0685-0.2382,0.1041-0.3724,0.1041
			C2.1871,16.0691,1.9736,15.976,1.8092,15.787z"/>
		<path class="st0" d="M4.553,16.0362c-0.0137-0.0739-0.0247-0.1588-0.0247-0.2328c-0.0575,0.1616-0.2465,0.2629-0.4792,0.2629
			c-0.2629,0-0.4464-0.1561-0.4464-0.3944c0-0.2382,0.1588-0.3779,0.4765-0.4135l0.4436-0.0575v-0.0794
			c0-0.1999-0.115-0.3122-0.3231-0.3122c-0.1835,0-0.2958,0.0931-0.3149,0.2547H3.6657c0.0247-0.2711,0.2355-0.4382,0.5395-0.4382
			c0.3505,0,0.5422,0.1725,0.5422,0.4902v0.6326c0,0.1287,0.011,0.2109,0.0329,0.2875H4.553z M4.0957,15.8938
			c0.2437,0,0.4272-0.1616,0.4272-0.3998v-0.1232l-0.3752,0.0411c-0.2382,0.0329-0.3149,0.1096-0.3149,0.2547
			C3.8328,15.8062,3.9341,15.8938,4.0957,15.8938z"/>
		<path class="st0" d="M5.9851,14.6395v0.2081c-0.0301-0.0082-0.0739-0.0109-0.1177-0.0109c-0.2437,0-0.419,0.2026-0.419,0.5203
			v0.6792H5.221v-1.3775h0.2191v0.3259c0.0575-0.2191,0.2273-0.356,0.4382-0.356C5.9194,14.6286,5.955,14.6313,5.9851,14.6395z"/>
		<path class="st0" d="M7.4062,15.6309c-0.0575,0.2738-0.2766,0.4382-0.5696,0.4382c-0.1999,0-0.3587-0.0657-0.4792-0.1944
			c-0.1232-0.1287-0.1835-0.304-0.1835-0.5203s0.0603-0.3943,0.1835-0.5285c0.1205-0.1342,0.2766-0.1999,0.4655-0.1999
			c0.1835,0,0.3259,0.063,0.4327,0.1862c0.1068,0.126,0.1588,0.2903,0.1588,0.4929v0.0904H6.3957
			c0.0109,0.3149,0.1753,0.493,0.4409,0.493c0.178,0,0.2985-0.0849,0.356-0.2574H7.4062z M6.4039,15.2311h0.7887
			c-0.0082-0.2629-0.1424-0.4217-0.3697-0.4217C6.5929,14.8093,6.4395,14.9654,6.4039,15.2311z"/>
		<path class="st0" d="M8.4412,15.8335v0.1862c-0.0876,0.0246-0.1643,0.0383-0.241,0.0383c-0.2547,0-0.3806-0.1232-0.3806-0.3752
			v-0.8517H7.6169v-0.1725h0.2026v-0.3505h0.2246v0.3505h0.3615v0.1725H8.0414v0.8407c0,0.1342,0.0603,0.1944,0.1999,0.1944
			C8.3071,15.8664,8.3673,15.8555,8.4412,15.8335z"/>
		<path class="st0" d="M9.0381,14.0207v0.89c0.0657-0.178,0.2328-0.2848,0.4409-0.2848c0.3094,0,0.4929,0.1944,0.4929,0.523v0.8873
			H9.7446v-0.838c0-0.2547-0.1123-0.3861-0.3286-0.3861c-0.2382,0-0.3779,0.1671-0.3779,0.4656v0.7585H8.8108v-2.0155H9.0381z"/>
		<path class="st0" d="M11.8941,15.3461v-1.2652h0.2355v1.2624c0,0.4464-0.2519,0.7257-0.66,0.7257
			c-0.189,0-0.3396-0.0548-0.4573-0.1616c-0.1178-0.1068-0.178-0.252-0.1835-0.4354h0.2273
			c0.0137,0.2602,0.1698,0.4108,0.4135,0.4108C11.7462,15.8828,11.8941,15.6966,11.8941,15.3461z"/>
		<path class="st0" d="M13.6247,14.823c0.1205,0.1341,0.1808,0.3094,0.1808,0.5258c0,0.2163-0.0603,0.3916-0.1808,0.5231
			c-0.1205,0.1314-0.2793,0.1972-0.4738,0.1972c-0.1944,0-0.3533-0.0657-0.4738-0.1972c-0.1205-0.1315-0.1808-0.3067-0.1808-0.5231
			c0-0.2164,0.0603-0.3916,0.1808-0.5258c0.1205-0.1315,0.2793-0.1972,0.4738-0.1972
			C13.3453,14.6259,13.5042,14.6916,13.6247,14.823z M12.721,15.3488c0,0.3314,0.1643,0.5367,0.4299,0.5367
			c0.2656,0,0.4299-0.2053,0.4299-0.5367c0-0.3314-0.1643-0.5395-0.4299-0.5395C12.8853,14.8093,12.721,15.0175,12.721,15.3488z"/>
		<path class="st0" d="M14.4186,14.0207v0.89c0.0657-0.178,0.2328-0.2848,0.4409-0.2848c0.3094,0,0.4929,0.1944,0.4929,0.523v0.8873
			h-0.2273v-0.838c0-0.2547-0.1123-0.3861-0.3286-0.3861c-0.2382,0-0.3779,0.1671-0.3779,0.4656v0.7585h-0.2273v-2.0155H14.4186z"/>
		<path class="st0" d="M15.826,14.6587h0.2191v0.252c0.0657-0.1725,0.241-0.2848,0.4491-0.2848c0.3094,0,0.4929,0.1944,0.4929,0.523
			v0.8873h-0.2273v-0.838c0-0.2547-0.1123-0.3861-0.3286-0.3861c-0.2382,0-0.3779,0.1671-0.3779,0.4656v0.7585H15.826V14.6587z"/>
		<path class="st0" d="M17.343,15.6282h0.2191c0.0137,0.167,0.1616,0.2684,0.3779,0.2684c0.1972,0,0.3259-0.0931,0.3259-0.2355
			c0-0.1069-0.0767-0.1671-0.241-0.1999l-0.2437-0.0493c-0.2711-0.052-0.3834-0.1643-0.3834-0.3724
			c0-0.1178,0.0493-0.2163,0.1451-0.2958c0.0958-0.0794,0.2191-0.1177,0.367-0.1177c0.3204,0,0.5148,0.1424,0.5395,0.397h-0.2109
			c-0.0136-0.1397-0.1397-0.2218-0.3286-0.2218c-0.1835,0-0.3012,0.0904-0.3012,0.2245c0,0.1096,0.0657,0.1643,0.241,0.1972
			l0.2739,0.052c0.2409,0.0465,0.356,0.167,0.356,0.3752c0,0.1205-0.0493,0.2191-0.1506,0.2985
			c-0.1013,0.0794-0.23,0.1205-0.3861,0.1205C17.5922,16.0691,17.3649,15.9047,17.343,15.6282z"/>
	</g>
	<g>
		<path class="st0" d="M1.6778,17.5037h0.6928c0.2848,0,0.5148,0.0904,0.6901,0.2684c0.1753,0.1807,0.2629,0.4163,0.2629,0.7092
			c0,0.293-0.0876,0.5285-0.2629,0.7066c-0.1753,0.1807-0.4053,0.2711-0.6901,0.2711H1.6778V17.5037z M2.3706,17.7009H1.9106v1.5609
			h0.4601c0.4464,0,0.7093-0.2958,0.7093-0.7805C3.0799,17.9967,2.8115,17.7009,2.3706,17.7009z"/>
		<path class="st0" d="M4.8351,19.0537c-0.0575,0.2738-0.2766,0.4382-0.5696,0.4382c-0.1999,0-0.3587-0.0657-0.4792-0.1944
			c-0.1232-0.1287-0.1835-0.304-0.1835-0.5203s0.0603-0.3943,0.1835-0.5285c0.1205-0.1342,0.2766-0.1999,0.4655-0.1999
			c0.1835,0,0.3259,0.063,0.4327,0.1862c0.1068,0.126,0.1588,0.2903,0.1588,0.4929v0.0904H3.8246
			c0.0109,0.3149,0.1753,0.493,0.4409,0.493c0.178,0,0.2985-0.0849,0.356-0.2574H4.8351z M3.8328,18.6539h0.7887
			c-0.0082-0.2629-0.1424-0.4217-0.3697-0.4217C4.0217,18.2322,3.8684,18.3883,3.8328,18.6539z"/>
		<path class="st0" d="M5.1115,19.051h0.2191c0.0137,0.167,0.1616,0.2684,0.3779,0.2684c0.1972,0,0.3259-0.0931,0.3259-0.2355
			c0-0.1069-0.0767-0.1671-0.241-0.1999l-0.2437-0.0493c-0.2711-0.052-0.3834-0.1643-0.3834-0.3724
			c0-0.1178,0.0493-0.2163,0.1451-0.2958c0.0958-0.0794,0.2191-0.1177,0.367-0.1177c0.3204,0,0.5148,0.1424,0.5395,0.397H6.007
			c-0.0137-0.1397-0.1397-0.2218-0.3286-0.2218c-0.1835,0-0.3012,0.0904-0.3012,0.2245c0,0.1096,0.0657,0.1643,0.241,0.1972
			l0.2738,0.052c0.241,0.0465,0.356,0.167,0.356,0.3752c0,0.1205-0.0493,0.2191-0.1506,0.2985
			c-0.1013,0.0794-0.23,0.1205-0.3861,0.1205C5.3607,19.4919,5.1334,19.3275,5.1115,19.051z"/>
		<path class="st0" d="M6.8832,17.794H6.6258v-0.2766h0.2574V17.794z M6.8695,19.459H6.6422v-1.3775h0.2273V19.459z"/>
		<path class="st0" d="M8.3208,19.3714v-0.2027c-0.0767,0.1616-0.2492,0.2657-0.4573,0.2657c-0.1835,0-0.3286-0.063-0.4409-0.1917
			c-0.1123-0.126-0.1698-0.293-0.1698-0.5039c0-0.2054,0.0575-0.3697,0.1725-0.4984c0.1123-0.1287,0.2601-0.1916,0.4382-0.1916
			c0.2054,0,0.3861,0.1095,0.4655,0.2738v-0.241h0.2218v1.2734c0,0.3971-0.2437,0.6244-0.6518,0.6244
			c-0.3396,0-0.5559-0.1424-0.6107-0.4026h0.23c0.0411,0.1533,0.1616,0.2273,0.3779,0.2273
			C8.1729,19.8041,8.3208,19.6534,8.3208,19.3714z M8.3372,18.7717v-0.0657c0-0.2848-0.178-0.4792-0.4327-0.4792
			c-0.2629,0-0.4272,0.1972-0.4272,0.5121c0,0.3149,0.1643,0.5148,0.4272,0.5148C8.1592,19.2536,8.3372,19.0565,8.3372,18.7717z"/>
		<path class="st0" d="M9.0381,18.0815h0.2191v0.252c0.0657-0.1725,0.241-0.2848,0.4491-0.2848c0.3094,0,0.4929,0.1944,0.4929,0.523
			v0.8873H9.9719v-0.838c0-0.2547-0.1123-0.3861-0.3286-0.3861c-0.2382,0-0.3779,0.1671-0.3779,0.4656v0.7585H9.0381V18.0815z"/>
		<path class="st0" d="M12.639,18.454v0.1862h-0.6189v0.6217h-0.1862v-0.6217h-0.6216V18.454h0.6216v-0.6217h0.1862v0.6217H12.639z"
			/>
		<path class="st0" d="M13.6793,17.5037h0.6928c0.2848,0,0.5148,0.0904,0.6901,0.2684c0.1753,0.1807,0.2629,0.4163,0.2629,0.7092
			c0,0.293-0.0876,0.5285-0.2629,0.7066c-0.1753,0.1807-0.4053,0.2711-0.6901,0.2711h-0.6928V17.5037z M14.3722,17.7009h-0.4601
			v1.5609h0.4601c0.4464,0,0.7093-0.2958,0.7093-0.7805C15.0815,17.9967,14.8131,17.7009,14.3722,17.7009z"/>
		<path class="st0" d="M16.8367,19.0537c-0.0575,0.2738-0.2766,0.4382-0.5696,0.4382c-0.1999,0-0.3587-0.0657-0.4792-0.1944
			c-0.1232-0.1287-0.1835-0.304-0.1835-0.5203s0.0603-0.3943,0.1835-0.5285c0.1205-0.1342,0.2766-0.1999,0.4655-0.1999
			c0.1835,0,0.3259,0.063,0.4327,0.1862c0.1068,0.126,0.1588,0.2903,0.1588,0.4929v0.0904h-1.0187
			c0.0109,0.3149,0.1753,0.493,0.4409,0.493c0.178,0,0.2985-0.0849,0.356-0.2574H16.8367z M15.8343,18.6539h0.7887
			c-0.0082-0.2629-0.1424-0.4217-0.3697-0.4217C16.0233,18.2322,15.87,18.3883,15.8343,18.6539z"/>
		<path class="st0" d="M17.8415,19.459h-0.2547l-0.5504-1.3775h0.2328l0.4436,1.1529h0.0055l0.4245-1.1529H18.37L17.8415,19.459z"/>
		<path class="st0" d="M19.772,19.0537c-0.0575,0.2738-0.2765,0.4382-0.5696,0.4382c-0.1999,0-0.3588-0.0657-0.4792-0.1944
			c-0.1232-0.1287-0.1835-0.304-0.1835-0.5203s0.0603-0.3943,0.1835-0.5285c0.1204-0.1342,0.2765-0.1999,0.4655-0.1999
			c0.1835,0,0.3259,0.063,0.4327,0.1862c0.1068,0.126,0.1588,0.2903,0.1588,0.4929v0.0904h-1.0187
			c0.0109,0.3149,0.1753,0.493,0.4409,0.493c0.178,0,0.2985-0.0849,0.356-0.2574H19.772z M18.7697,18.6539h0.7887
			c-0.0082-0.2629-0.1424-0.4217-0.3697-0.4217C18.9587,18.2322,18.8053,18.3883,18.7697,18.6539z"/>
		<path class="st0" d="M20.3935,17.4435v2.0155h-0.2273v-2.0155H20.3935z"/>
		<path class="st0" d="M21.9078,18.2459c0.1204,0.1342,0.1807,0.3094,0.1807,0.5258c0,0.2163-0.0603,0.3916-0.1807,0.5231
			c-0.1205,0.1314-0.2793,0.1972-0.4738,0.1972c-0.1944,0-0.3533-0.0657-0.4738-0.1972c-0.1204-0.1315-0.1807-0.3067-0.1807-0.5231
			c0-0.2164,0.0603-0.3916,0.1807-0.5258c0.1205-0.1315,0.2793-0.1972,0.4738-0.1972
			C21.6285,18.0487,21.7873,18.1144,21.9078,18.2459z M21.0041,18.7717c0,0.3314,0.1643,0.5367,0.4299,0.5367
			c0.2657,0,0.43-0.2053,0.43-0.5367c0-0.3314-0.1643-0.5395-0.43-0.5395C21.1684,18.2322,21.0041,18.4403,21.0041,18.7717z"/>
		<path class="st0" d="M22.7018,19.218v0.7285h-0.2273v-1.8649h0.2191v0.252c0.0767-0.1671,0.2574-0.2848,0.4656-0.2848
			c0.1807,0,0.3286,0.0657,0.4436,0.1999c0.1123,0.1342,0.1698,0.3095,0.1698,0.5231c0,0.2136-0.0575,0.3861-0.1725,0.5203
			c-0.115,0.1342-0.2629,0.1999-0.4409,0.1999C22.9592,19.4919,22.7812,19.3824,22.7018,19.218z M22.6908,18.7498v0.0383
			c0,0.3204,0.1616,0.5258,0.4217,0.5258c0.2629,0,0.43-0.2136,0.43-0.5422c0-0.3314-0.1671-0.545-0.43-0.545
			C22.8524,18.2267,22.6908,18.4293,22.6908,18.7498z"/>
		<path class="st0" d="M25.232,18.3444c0.0849-0.1862,0.2574-0.2957,0.4628-0.2957c0.3067,0,0.4738,0.1862,0.4738,0.523v0.8873
			h-0.2301v-0.838c0-0.2629-0.0986-0.3861-0.2985-0.3861c-0.2273,0-0.3614,0.1725-0.3614,0.4656v0.7585h-0.23v-0.838
			c0-0.2629-0.0931-0.3861-0.2985-0.3861c-0.2273,0-0.3642,0.1698-0.3642,0.4656v0.7585h-0.2273v-1.3775h0.2191v0.252
			c0.0657-0.1753,0.2355-0.2848,0.4354-0.2848C25.0293,18.0487,25.1662,18.1445,25.232,18.3444z"/>
		<path class="st0" d="M27.7703,19.0537c-0.0575,0.2738-0.2765,0.4382-0.5696,0.4382c-0.1999,0-0.3588-0.0657-0.4792-0.1944
			c-0.1232-0.1287-0.1835-0.304-0.1835-0.5203s0.0603-0.3943,0.1835-0.5285c0.1204-0.1342,0.2765-0.1999,0.4655-0.1999
			c0.1835,0,0.3259,0.063,0.4327,0.1862c0.1068,0.126,0.1588,0.2903,0.1588,0.4929v0.0904h-1.0187
			c0.0109,0.3149,0.1753,0.493,0.4409,0.493c0.178,0,0.2985-0.0849,0.356-0.2574H27.7703z M26.768,18.6539h0.7887
			c-0.0082-0.2629-0.1424-0.4217-0.3697-0.4217C26.957,18.2322,26.8036,18.3883,26.768,18.6539z"/>
		<path class="st0" d="M28.1645,18.0815h0.2191v0.252c0.0657-0.1725,0.241-0.2848,0.4491-0.2848
			c0.3095,0,0.4929,0.1944,0.4929,0.523v0.8873h-0.2273v-0.838c0-0.2547-0.1123-0.3861-0.3286-0.3861
			c-0.2382,0-0.3779,0.1671-0.3779,0.4656v0.7585h-0.2273V18.0815z"/>
		<path class="st0" d="M30.44,19.2563v0.1862c-0.0876,0.0246-0.1643,0.0383-0.2409,0.0383c-0.2547,0-0.3807-0.1232-0.3807-0.3752
			v-0.8517h-0.2027v-0.1725h0.2027V17.731h0.2246v0.3505h0.3614v0.1725h-0.3642v0.8407c0,0.1342,0.0602,0.1944,0.1999,0.1944
			C30.3058,19.2892,30.366,19.2783,30.44,19.2563z"/>
	</g>
</g>
</svg>
